<?xml version="1.0" encoding="UTF-8" standalone="no"?>
<!-- Created with Inkscape (http://www.inkscape.org/) -->

<svg
   version="1.1"
   id="svg1"
   width="488.61972"
   height="117.65131"
   viewBox="0 0 488.61972 117.65131"
   xmlns="http://www.w3.org/2000/svg"
   xmlns:svg="http://www.w3.org/2000/svg">
  <defs
     id="defs1" />
  <g
     id="g1"
     transform="translate(-1.2048624,-0.99975478)">
    <path
       style="fill:#0055aa;fill-opacity:1"
       d="m 389.37906,117.54542 c -0.33375,-0.86974 -0.1024,-2.81076 0.51411,-4.31338 0.61652,-1.50262 2.901,-11.36464 5.07663,-21.915592 4.07008,-19.738283 6.64479,-31.386686 7.67413,-34.719006 0.56414,-1.826324 0.0757,-1.874111 -12.19004,-1.192617 -15.49945,0.861162 -18.14292,1.343313 -18.9557,3.457389 -2.04239,5.312394 -7.7078,34.590588 -7.68287,39.704249 0.0323,6.631737 -0.84965,9.018077 -3.02458,8.183477 -1.97899,-0.75941 -0.74562,-12.420291 3.16022,-29.878301 4.13794,-18.495444 4.15714,-18.264896 -1.45096,-17.42391 -3.59721,0.539435 -4.5,0.380134 -4.5,-0.794044 0,-0.929763 1.87979,-1.950638 5.1218,-2.781539 5.92666,-1.518958 5.7434,-1.212331 9.80128,-16.398744 3.7002,-13.847806 6.2232,-20.68883 7.82734,-21.223541 1.87956,-0.62652 1.54045,1.804234 -1.67243,11.988181 -4.56916,14.482982 -6.41409,21.759191 -5.69861,22.474672 1.10465,1.104652 29.01328,-1.664108 30.19798,-2.995882 0.59534,-0.669257 3.19091,-8.336791 5.76792,-17.038963 C 415.56366,11.679336 419.72512,1 421.68932,1 c 1.78588,0 1.84051,-0.23114864 -3.19082,13.5 -4.6447,12.676006 -10.6183,33.497136 -9.92992,34.61097 0.28847,0.466751 3.26454,0.562246 6.6135,0.212211 4.98033,-0.520548 6.00387,-0.380312 5.62145,0.770196 -0.27449,0.825831 -3.04468,1.870549 -6.70912,2.530209 -3.43287,0.617972 -6.59616,1.517972 -7.02953,2 -1.06079,1.179905 -4.18877,14.132151 -9.05797,37.507045 -4.30403,20.661789 -5.60223,25.501229 -7.08693,26.418819 -0.51376,0.31752 -1.20717,-0.13429 -1.54092,-1.00403 z M 6.087631,108.38428 C 3.0447827,104.51592 1.8332628,99.604172 1.3063527,89 0.67806513,76.355587 2.977854,61.757053 7.9006601,47.140845 14.683911,27.000828 24.686855,8 28.506272,8 30.623384,8 30.374638,9.1185652 27.381981,13.05572 23.551507,18.095112 14.612783,37.111087 11.15174,47.583451 5.1760666,65.664537 2.8940975,83.514795 4.9784912,95.872481 6.3244262,103.85209 9.2728275,108.60001 12.187564,107.48152 15.226799,106.31526 20.83413,96.789795 29.836713,77.5 44.079528,46.981987 46.851152,41.822778 48.793787,42.212572 c 2.249274,0.451321 2.113759,2.558777 -1.16157,18.06407 -3.32651,15.747587 -4.25488,26.800654 -2.723686,32.427889 C 46.282616,97.754383 50.449104,103 53.086013,103 c 6.71807,0 17.606509,-18.740405 22.914908,-39.439503 3.305879,-12.89065 6.356932,-35.286515 5.352425,-39.288789 -0.512735,-2.042899 -0.294409,-2.403755 1.263402,-2.088188 1.692658,0.342884 1.855837,1.238444 1.612367,8.848986 C 83.068532,67.310786 67.140285,106 53.365196,106 48.692124,106 43.850829,101.11051 42.008459,94.530214 40.466037,89.021222 41.21199,72.826618 43.437768,63.5 c 0.787539,-3.3 1.089092,-6.349623 0.67012,-6.77694 -0.418973,-0.427317 -4.506971,7.447683 -9.084441,17.5 -4.57747,10.052317 -10.048439,21.268626 -12.15771,24.92513 -6.496977,11.26277 -12.558994,14.59982 -16.778106,9.23609 z M 119.38516,104.20454 C 115.32269,101.56843 115.01485,90.226243 118.56538,74 c 0.42282,-1.932303 -0.82512,-0.990658 -5.4956,4.146773 C 102.94635,89.282332 94.606972,93.464115 90.571429,89.428571 86.733158,85.590301 91.259864,60 95.777092,60 c 1.605755,0 1.592826,0.09041 -1.706399,11.932371 -5.466631,19.621468 0.173237,21.164697 15.903627,4.351687 8.59047,-9.181701 10.3757,-12.240322 15.63305,-26.784058 5.01797,-13.881499 9.53437,-23.440027 14.86189,-31.453767 4.70649,-7.079559 6.31261,-8.4171143 8.49073,-7.070959 2.69974,1.66853 -4.65235,18.338031 -17.18643,38.967041 -7.71404,12.69602 -9.8096,19.048749 -11.85756,35.946329 -0.95507,7.880249 -0.96204,10.714901 -0.0314,12.757539 l 1.19656,2.626157 2.5508,-2.386171 c 3.41886,-3.198154 20.6171,-26.451594 23.65332,-31.981183 C 148.61558,64.482244 151.62239,57.1 153.96709,50.5 161.37011,29.661476 173.58939,8.3921276 176.961,10.475899 c 3.62442,2.24001 -2.75897,16.985482 -18.70767,43.214309 -2.86586,4.713112 -5.64894,10.868986 -6.55546,14.5 -2.10349,8.425332 -3.91558,22.529074 -3.51861,27.385777 0.59369,7.263385 3.21057,5.403025 15.58001,-11.075985 6.1926,-8.25 12.2128,-16.948764 13.37822,-19.330586 1.89917,-3.881426 4.26276,-6.102494 5.34374,-5.021517 0.21724,0.217236 -0.70949,3.760329 -2.0594,7.873539 -2.81517,8.577911 -3.94444,16.8468 -2.5762,18.863911 1.84859,2.725271 6.50292,0.117902 14.65731,-8.211067 4.40162,-4.495854 10.19204,-10.793038 12.8676,-13.993742 5.82118,-6.963722 8.55023,-8.289991 12.67218,-6.158448 l 2.93031,1.515324 4.67395,-6.018707 C 229.80837,48.660029 233,46.420494 233,48.859168 c 0,0.472543 -1.57894,4.276578 -3.50876,8.453411 -4.27181,9.245775 -7.0694,19.509263 -5.69296,20.885703 1.37934,1.379334 5.84684,-1.145412 13.46919,-7.611917 5.98873,-5.0806 6.61406,-6.020286 9.64509,-14.493736 3.26176,-9.118478 6.29126,-14.214307 7.64733,-12.86333 0.40262,0.401115 -1.1032,5.351115 -3.34627,11 -5.9103,14.884314 -10.09981,32.054462 -7.41665,30.396178 0.43834,-0.270906 3.23004,-4.602951 6.20379,-9.626766 6.27238,-10.596472 12.32578,-16.802526 14.57138,-14.938839 C 265.60136,60.914047 266,63.583799 266,69.622445 266,75.253601 266.37579,78 267.1463,78 c 0.63046,0 3.31118,-2.025 5.95715,-4.5 6.04105,-5.650688 8.21791,-5.750576 10.89655,-0.5 1.19539,2.343166 2.75709,3.998452 3.77032,3.996262 2.39686,-0.0052 6.80992,-2.865656 12.87661,-8.346425 C 305.94247,63.865739 308,62.956669 308,65.401056 c 0,1.322859 -8.58316,9.259253 -13.97251,12.919644 -4.81945,3.273321 -10.25497,1.859804 -13.06922,-3.398677 C 279.44922,72.102339 278.4347,72.475651 272.59352,78 264.44345,85.707991 263,84.868149 263,72.418213 263,66.959377 262.6531,65 261.68662,65 c -1.41272,0 -8.13554,9.885883 -14.96093,22 -3.05646,5.424772 -4.77908,7.5 -6.22569,7.5 -1.81357,0 -1.96997,-0.559289 -1.67787,-6 0.17717,-3.3 0.92196,-8.3625 1.65507,-11.25 1.42381,-5.607937 0.9171,-6.448165 -1.96686,-3.261425 -0.9898,1.093716 -3.87204,3.311858 -6.40499,4.929206 -9.95333,6.355449 -13.13295,4.897126 -11.41627,-5.236036 0.576,-3.39996 0.8409,-6.406745 0.58866,-6.681745 -0.25223,-0.275 -3.45541,2.72575 -7.11817,6.668334 C 204.12988,84.464251 199,86.713616 199,80.315545 c 0,-2.701297 -0.0878,-2.662459 -5.25,2.323144 C 186.74866,89.400475 184.17577,91 180.30055,91 c -4.67014,0 -6.70533,-3.435582 -6.05354,-10.218903 l 0.49835,-5.186376 -2.12268,2.540414 c -1.16747,1.397228 -5.58612,7.314419 -9.81922,13.149314 -4.42149,6.094583 -8.98865,11.277081 -10.73307,12.179151 -2.87047,1.48438 -3.15424,1.45255 -5.18867,-0.58188 -2.01569,-2.01569 -2.11532,-2.82507 -1.57141,-12.766926 C 145.62971,84.276657 146.16514,78.375 146.50015,77 c 0.59422,-2.43884 0.54672,-2.426608 -1.9414,0.5 -1.40279,1.65 -6.03987,7.711387 -10.30464,13.46975 -7.50907,10.13889 -12.6239,14.69158 -14.86895,13.23479 z m 91.80141,-32.256114 c 6.61258,-7.3857 7.73637,-10.245139 4.22366,-10.74698 C 211.74021,60.677131 203,72.133171 203,77.467881 c 0,2.815679 1.82644,1.584278 8.18657,-5.519455 z M 138.99229,32.015377 c 6.01612,-12.0014 7.37756,-15.854737 4.58591,-12.979663 -1.8214,1.875838 -10.22171,18.695735 -11.11532,22.256168 -1.3279,5.29076 0.60031,2.551299 6.52941,-9.276505 z m 29,0 c 6.23665,-12.441322 7.20028,-15.250013 4.44864,-12.966351 C 169.03611,21.874771 159.32743,44 161.49229,44 c 0.27076,0 3.19576,-5.39308 6.5,-11.984623 z M 454.97026,86.25 c -1.77974,-2.250345 -2.07486,-3.605989 -1.62429,-7.461186 l 0.55061,-4.711185 -4.8353,3.473817 c -6.82049,4.900034 -10.77629,6.162115 -12.84141,4.096997 -1.37736,-1.377366 -1.45543,-2.504837 -0.54547,-7.877929 0.58407,-3.448783 0.85558,-6.495514 0.60334,-6.770514 -0.25223,-0.275 -3.45541,2.72575 -7.11817,6.668334 -7.35587,7.917827 -11.36855,10.849186 -13.65185,9.973002 -3.78627,-1.452927 0.44409,-14.815127 6.80298,-21.488218 4.37994,-4.596351 7.09132,-5.513708 10.73202,-3.631028 l 2.93031,1.515324 4.67395,-6.018707 C 444.80837,48.660029 448,46.420494 448,48.859168 c 0,0.472543 -1.57894,4.276578 -3.50876,8.453411 -4.35938,9.435316 -7.07419,19.504476 -5.64425,20.934416 1.49043,1.490422 8.22308,-2.828168 17.43888,-11.185983 C 463.93878,60.12058 467,58.5317 467,61.5 c 0,0.825 -0.62159,1.5 -1.38131,1.5 -2.11796,0 -6.27408,6.070617 -8.2116,11.994247 -1.54245,4.715785 -1.57538,5.615234 -0.2894,7.906366 1.86923,3.330263 4.23792,3.743777 6.79539,1.186307 3.02693,-3.026934 3.61718,-6.751744 1.70524,-10.76112 -0.9083,-1.904736 -1.39245,-3.882251 -1.07587,-4.394478 C 464.85902,68.419095 467.35272,68 470.084,68 c 2.73128,0 7.52663,-0.9 10.65632,-2 6.53475,-2.29678 9.61007,-2.552747 9.01087,-0.75 -0.3813,1.147155 -10.62524,4.902182 -16.87634,6.186207 -2.37796,0.488451 -2.66837,1.060367 -3.08411,6.073637 -0.3611,4.354382 -1.06726,6.169341 -3.31194,8.512283 -3.81859,3.985747 -8.4638,4.077724 -11.50854,0.227873 z M 426.18657,71.948426 c 6.49435,-7.253642 7.69432,-10.155101 4.4577,-10.778417 -3.72606,-0.717573 -12.55262,10.526886 -12.62231,16.079991 -0.0383,3.054643 1.68497,1.93564 8.16461,-5.301574 z M 96.5,52 C 95.576695,50.506062 96.861375,49 99.059017,49 100.33333,49 101,49.686937 101,51 c 0,2.121059 -3.347411,2.864928 -4.5,1 z M 182,51 c 0,-1.333333 0.66667,-2 2,-2 1.33333,0 2,0.666667 2,2 0,1.333333 -0.66667,2 -2,2 -1.33333,0 -2,-0.666667 -2,-2 z"
       id="path1" />
  </g>
</svg>
